<?xml version="1.0" encoding="UTF-8"?> <svg xmlns="http://www.w3.org/2000/svg" width="265" height="337" viewBox="0 0 265 337" fill="none"><g clip-path="url(#clip0_334_53)"><path d="M137.703 268V278.431C137.703 283.623 134.108 285.645 128.86 285.645C123.613 285.645 120.018 283.631 120.018 278.431V268H123.484V278.351C123.484 281.496 125.675 282.732 128.86 282.732C132.046 282.732 134.237 281.488 134.237 278.351V268H137.703V268Z" fill="black"></path><path d="M140.841 281.577H144.821V285.188H140.841V281.577Z" fill="black"></path><path d="M155.87 270.255C153.278 270.255 151.585 270.937 151.585 272.525C151.585 273.849 152.548 274.267 154.048 274.443L160.179 275.182C162.987 275.519 165.17 276.682 165.17 280.132C165.17 284.265 161.503 285.645 156.127 285.645C151.047 285.645 147.244 284.289 147.115 279.402H150.919C151.047 282.243 153.326 282.909 156.215 282.909C159.288 282.909 161.23 282.058 161.206 280.365C161.19 278.752 160.067 278.319 158.454 278.11L152.652 277.38C149.812 277.019 147.701 275.888 147.701 272.75C147.701 268.987 151.184 267.542 155.926 267.542C160.668 267.542 164.48 268.891 164.592 273.208H160.789C160.684 270.848 158.518 270.255 155.87 270.255Z" fill="black"></path><path d="M167.85 281.577H171.83V285.188H167.85V281.577Z" fill="black"></path><path d="M137.591 305.946C137.591 309.252 135.793 310.865 131.733 310.865H120.026V293.677H131.492C135.32 293.677 136.989 295.242 136.989 298.091C136.989 299.968 136.283 301.124 135.007 301.557V301.661C136.379 302.127 137.591 303.186 137.591 305.946V305.946ZM133.226 298.556C133.226 297.071 132.463 296.454 130.81 296.454H123.492V300.666H130.81C132.463 300.666 133.226 300.024 133.226 298.564V298.556ZM133.819 305.673C133.819 303.98 132.953 303.242 131.011 303.242H123.484V308.105H131.011C132.953 308.105 133.819 307.367 133.819 305.673V305.673Z" fill="black"></path><path d="M153.519 307.222H143.794L142.1 310.865H138.353L146.602 293.677H150.807L159.04 310.865H155.22L153.527 307.222H153.519ZM152.211 304.406L148.712 296.879H148.608L145.11 304.406H152.211V304.406Z" fill="black"></path><path d="M178.811 293.677V310.865H174.855L164.472 298.099H164.368V310.865H161.07V293.677H165.138L175.385 306.299H175.489V293.677H178.811V293.677Z" fill="black"></path><path d="M191.457 296.165C188.047 296.165 185.399 298.163 185.399 302.271C185.399 306.38 188.039 308.378 191.457 308.378C194.876 308.378 196.793 306.62 196.906 304.181H200.958C200.837 308.618 197.13 311.323 191.465 311.323C185.8 311.323 181.628 308.378 181.628 302.271C181.628 296.165 185.993 293.22 191.465 293.22C196.938 293.22 200.701 295.924 200.91 300H196.898C196.729 297.946 195.028 296.165 191.457 296.165V296.165Z" fill="black"></path><path d="M223.241 302.271C223.241 308.378 218.876 311.323 213.09 311.323C207.305 311.323 202.94 308.378 202.94 302.271C202.94 296.165 207.305 293.22 213.09 293.22C218.876 293.22 223.241 296.165 223.241 302.271ZM219.454 302.271C219.454 298.163 216.814 296.165 213.09 296.165C209.367 296.165 206.727 298.163 206.727 302.271C206.727 306.38 209.367 308.378 213.09 308.378C216.814 308.378 219.454 306.38 219.454 302.271Z" fill="black"></path><path d="M244.24 310.865H240.252L236.176 304.125H229.5V310.865H226.033V293.677H237.805C242.026 293.677 243.879 295.266 243.879 298.869C243.879 302.071 242.002 303.25 239.867 303.667V303.788L244.24 310.865ZM240.036 298.949C240.036 297.368 239.217 296.654 237.388 296.654H229.5V301.244H237.388C239.217 301.244 240.036 300.53 240.036 298.949Z" fill="black"></path><path d="M264.188 298.941C264.188 302.6 262.335 304.221 258.114 304.221H250.178V310.865H246.712V293.677H258.114C262.335 293.677 264.188 295.282 264.188 298.941V298.941ZM260.401 299.013C260.401 297.304 259.518 296.55 257.552 296.55H250.178V301.485H257.552C259.518 301.485 260.401 300.731 260.401 299.013Z" fill="black"></path><path d="M137.655 322.323H130.57V336.542H127.103V322.323H120.018V319.354H137.655V322.323V322.323Z" fill="black"></path><path d="M158.365 327.949C158.365 334.055 154 337 148.215 337C142.429 337 138.064 334.055 138.064 327.949C138.064 321.842 142.429 318.897 148.215 318.897C154 318.897 158.365 321.842 158.365 327.949ZM154.578 327.949C154.578 323.84 151.938 321.842 148.215 321.842C144.492 321.842 141.852 323.84 141.852 327.949C141.852 332.057 144.492 334.055 148.215 334.055C151.938 334.055 154.578 332.057 154.578 327.949Z" fill="black"></path><path d="M175.979 336.542L172.287 323.784H172.183L168.452 336.542H164.335L158.967 319.354H162.739L166.43 332.265H166.534L170.313 319.354H174.197L177.977 332.265H178.081L181.756 319.354H185.479L180.079 336.542H175.971H175.979Z" fill="black"></path><path d="M191.008 326.223H202.627V328.992H191.008V333.654H203.317V336.542H187.541V319.354H203.012V322.243H191.008V326.223Z" fill="black"></path><path d="M224.621 336.542H220.633L216.557 329.802H209.881V336.542H206.414V319.354H218.186C222.407 319.354 224.26 320.943 224.26 324.546C224.26 327.748 222.382 328.927 220.248 329.345V329.465L224.621 336.542ZM220.417 324.626C220.417 323.046 219.598 322.331 217.769 322.331H209.881V326.921H217.769C219.598 326.921 220.417 326.207 220.417 324.626Z" fill="black"></path><path d="M95.4719 41.509H89.1167V337H95.4719V41.509Z" fill="black"></path><path d="M82.7375 41.509H76.3823V337H82.7375V41.509Z" fill="black"></path><path d="M95.4719 0H89.1167V41.5092H95.4719V0Z" fill="url(#paint0_linear_334_53)"></path><path d="M82.7375 0H76.3823V41.5092H82.7375V0Z" fill="url(#paint1_linear_334_53)"></path><path d="M70.011 0H63.6559V66.9699H70.011V0Z" fill="url(#paint2_linear_334_53)"></path><path d="M57.2767 0H50.9215V66.9699H57.2767V0Z" fill="url(#paint3_linear_334_53)"></path><path d="M44.5504 0H38.1952V92.4307H44.5504V0Z" fill="url(#paint4_linear_334_53)"></path><path d="M31.8159 0H25.4607V92.4307H31.8159V0Z" fill="url(#paint5_linear_334_53)"></path><path d="M19.0895 0H12.7344V117.891H19.0895V0Z" fill="url(#paint6_linear_334_53)"></path><path d="M6.35516 0H0V117.891H6.35516V0Z" fill="url(#paint7_linear_334_53)"></path><path d="M70.011 66.97H63.6559V337H70.011V66.97Z" fill="black"></path><path d="M57.2767 66.97H50.9215V337H57.2767V66.97Z" fill="black"></path><path d="M44.5504 92.4307H38.1952V337H44.5504V92.4307Z" fill="black"></path><path d="M31.8159 92.4307H25.4607V337H31.8159V92.4307Z" fill="black"></path><path d="M19.0895 117.891H12.7344V337H19.0895V117.891Z" fill="black"></path><path d="M6.35516 117.891H0V337H6.35516V117.891Z" fill="black"></path></g><defs><linearGradient id="paint0_linear_334_53" x1="92.2943" y1="41.6295" x2="92.2943" y2="3.85161" gradientUnits="userSpaceOnUse"><stop stop-color="black" stop-opacity="0"></stop><stop offset="1" stop-color="black"></stop></linearGradient><linearGradient id="paint1_linear_334_53" x1="79.5599" y1="41.6295" x2="79.5599" y2="3.85161" gradientUnits="userSpaceOnUse"><stop stop-color="black" stop-opacity="0"></stop><stop offset="1" stop-color="black"></stop></linearGradient><linearGradient id="paint2_linear_334_53" x1="66.8335" y1="67.1625" x2="66.8335" y2="6.21072" gradientUnits="userSpaceOnUse"><stop stop-color="black" stop-opacity="0"></stop><stop offset="1" stop-color="black"></stop></linearGradient><linearGradient id="paint3_linear_334_53" x1="54.0991" y1="67.1625" x2="54.0991" y2="6.21072" gradientUnits="userSpaceOnUse"><stop stop-color="black" stop-opacity="0"></stop><stop offset="1" stop-color="black"></stop></linearGradient><linearGradient id="paint4_linear_334_53" x1="41.3728" y1="92.6955" x2="41.3728" y2="8.56983" gradientUnits="userSpaceOnUse"><stop stop-color="black" stop-opacity="0"></stop><stop offset="1" stop-color="black"></stop></linearGradient><linearGradient id="paint5_linear_334_53" x1="28.6383" y1="92.6955" x2="28.6383" y2="8.56983" gradientUnits="userSpaceOnUse"><stop stop-color="black" stop-opacity="0"></stop><stop offset="1" stop-color="black"></stop></linearGradient><linearGradient id="paint6_linear_334_53" x1="15.912" y1="118.228" x2="15.912" y2="10.937" gradientUnits="userSpaceOnUse"><stop stop-color="black" stop-opacity="0"></stop><stop offset="1" stop-color="black"></stop></linearGradient><linearGradient id="paint7_linear_334_53" x1="3.17758" y1="118.228" x2="3.17758" y2="10.937" gradientUnits="userSpaceOnUse"><stop stop-color="black" stop-opacity="0"></stop><stop offset="1" stop-color="black"></stop></linearGradient><clipPath id="clip0_334_53"><rect width="264.188" height="337" fill="black"></rect></clipPath></defs></svg> 