<svg xmlns="http://www.w3.org/2000/svg" xmlns:xlink="http://www.w3.org/1999/xlink" id="Layer_1" x="0px" y="0px" viewBox="0 0 90 90" style="enable-background:new 0 0 90 90;" xml:space="preserve"><style type="text/css">	.st0{clip-path:url(#SVGID_00000178894973114042386840000005664982918566156691_);}	.st1{fill:#FFFFFF;}	.st2{fill:#4FD3BD;}</style><g>	<defs>		<rect id="SVGID_1_" width="90" height="90"></rect>	</defs>	<clipPath id="SVGID_00000096760391183888315540000018055368671264368570_">		<use xlink:href="#SVGID_1_" style="overflow:visible;"></use>	</clipPath>	<g style="clip-path:url(#SVGID_00000096760391183888315540000018055368671264368570_);">		<path class="st1" d="M45,4.2c22.5,0,40.8,18.3,40.8,40.8S67.5,85.8,45,85.8S4.2,67.5,4.2,45S22.5,4.2,45,4.2z M45,0   c-6.1,0-12,1.2-17.5,3.5C22.1,5.8,17.3,9,13.2,13.2C9,17.3,5.8,22.1,3.5,27.5C1.2,33,0,38.9,0,45s1.2,12,3.5,17.5   c2.3,5.4,5.5,10.2,9.6,14.3c4.1,4.1,8.9,7.4,14.3,9.6C33,88.8,38.9,90,45,90s12-1.2,17.5-3.5c5.4-2.3,10.2-5.5,14.3-9.6   c4.1-4.1,7.4-8.9,9.6-14.3C88.8,57,90,51.1,90,45s-1.2-12-3.5-17.5c-2.3-5.4-5.5-10.2-9.6-14.3C72.7,9,67.9,5.8,62.5,3.5   C57,1.2,51.1,0,45,0z"></path>		<path class="st2" d="M45,85.8c22.5,0,40.8-18.3,40.8-40.8C85.8,22.5,67.5,4.2,45,4.2C22.5,4.2,4.2,22.5,4.2,45   C4.2,67.5,22.5,85.8,45,85.8z"></path>		<path class="st1" d="M39.8,36.5c-0.1,0-0.1,0-0.1,0c-1,0-2,0.2-2.9,0.7c-0.4,0.2-0.7,0.4-1.1,0.7l-0.1-1.2h-2.4v14.4h2.6V43   c0-1,0.4-2,1.1-2.8c0.7-0.7,1.7-1.2,2.8-1.2c0.5,0,0.9,0.1,1.3,0.2l0.5,0.2l1.7-1.9l-0.8-0.4C41.6,36.8,40.7,36.5,39.8,36.5   L39.8,36.5z"></path>		<path class="st1" d="M50.6,36.5L50.6,36.5c-2,0-3.8,0.7-5,1.9c-1.4,1.3-2.1,3.2-2.1,5.4c0,2,0.7,3.8,1.9,5.2   c0.6,0.7,1.4,1.2,2.3,1.6c0.7,0.3,1.5,0.5,2.3,0.6c0.3,0,0.6,0,0.6,0h0l0.2,0c1,0,1.9-0.2,2.8-0.6c0.9-0.4,1.6-0.9,2.3-1.6   c1.2-1.3,1.9-3.2,1.9-5.2c0-2.2-0.7-4.1-2.1-5.4C54.4,37.2,52.6,36.5,50.6,36.5L50.6,36.5z M54,47.2c-0.4,0.4-0.9,0.8-1.4,1   c-0.5,0.2-1.1,0.4-1.8,0.4h0v0l-0.4,0l-0.1,0c-0.5,0-1-0.2-1.5-0.4c-0.6-0.2-1-0.6-1.5-1c-0.8-0.9-1.2-2-1.2-3.3   c0-1.4,0.5-2.6,1.3-3.5c0.8-0.8,2-1.2,3.2-1.2c1.3,0,2.4,0.4,3.2,1.2c0.9,0.9,1.3,2.1,1.3,3.5C55.2,45.2,54.8,46.3,54,47.2   L54,47.2z"></path>		<path class="st1" d="M67.4,36.4L67.4,36.4c-0.2,0-0.3,0-0.5,0c-0.7,0-1.3,0.2-1.8,0.4c0,0,0,0,0,0c-0.1,0-0.2,0.1-0.3,0.1   c0,0,0,0-0.1,0c-0.8,0.4-1.4,0.8-1.5,0.9L63,36.7h-2.4v14.4h2.6v-7.8c0-1.2,0.4-2.3,1.2-3c0.4-0.4,0.8-0.7,1.3-0.9   c0.5-0.2,1.1-0.3,1.7-0.3h0.1c1.3,0,2.3,0.4,3,1c0.7,0.7,1.1,1.7,1.1,3.1v8h2.6v-8c0-2-0.7-3.7-1.9-4.9   C71.1,37,69.4,36.4,67.4,36.4L67.4,36.4z"></path>		<path class="st1" d="M53.1,33.9c0.2,0.1,0.4,0.1,0.6,0.1l0.1,0H54c0.3,0,0.5-0.1,0.8-0.2c0.2-0.1,0.4-0.2,0.6-0.4   c0.3-0.4,0.5-0.9,0.5-1.4c0-0.6-0.2-1.1-0.6-1.5C55,30.2,54.5,30,54,30c-0.5,0-1,0.2-1.4,0.5C52.2,30.9,52,31.4,52,32   c0,0.5,0.2,1,0.5,1.4C52.7,33.6,52.9,33.8,53.1,33.9L53.1,33.9z"></path>		<path class="st1" d="M46.5,33.9c0.2,0.1,0.4,0.1,0.6,0.1l0.1,0h0.2c0.3,0,0.5-0.1,0.8-0.2c0.2-0.1,0.4-0.2,0.6-0.4   c0.3-0.4,0.5-0.9,0.5-1.4c0-0.6-0.2-1.1-0.6-1.5c-0.3-0.3-0.8-0.5-1.4-0.5c-0.5,0-1,0.2-1.4,0.5c-0.4,0.4-0.6,0.9-0.6,1.5   c0,0.5,0.2,1,0.5,1.4C46,33.6,46.2,33.8,46.5,33.9L46.5,33.9z"></path>		<path class="st1" d="M28.6,35.8L27,37.6c-1.1-0.7-2.5-1.1-3.9-1.1h0c-2,0-3.8,0.7-5,1.9c-1.4,1.3-2.1,3.2-2.1,5.4   c0,2,0.7,3.8,1.9,5.2c0.1,0.1,0.2,0.2,0.3,0.3c0.6,0.6,1.2,0.9,2,1.2c0.9,0.4,1.9,0.6,2.9,0.6c0.9,0,1.8,0.2,2.5,0.5   c0.8,0.3,1.3,0.8,1.7,1.4c0.3,0.5,0.4,1,0.4,1.6c0,1.1-0.4,2-1.3,2.6c-0.8,0.6-1.9,0.9-3.2,0.9c-1.3,0-2.4-0.3-3.2-0.9   c-0.8-0.6-1.3-1.5-1.3-2.6v-0.6H16v0.8c0,0.9,0.2,1.8,0.6,2.6c0.4,0.7,0.9,1.4,1.5,1.9c0.6,0.5,1.4,0.9,2.3,1.2   c0.8,0.3,1.8,0.4,2.7,0.4c2,0,3.7-0.5,5-1.5c1.2-0.9,1.9-2.3,2.1-3.9c0-0.1,0-0.1,0-0.2c0,0,0,0,0-0.1h0c0-0.2,0-0.4,0-0.6   c0-0.8-0.1-1.5-0.4-2.1c-0.3-0.8-0.8-1.5-1.4-2c-0.3-0.3-0.6-0.5-1-0.7c0.3-0.2,0.6-0.5,0.9-0.8c1.2-1.3,1.9-3.2,1.9-5.2   c0-1.8-0.5-3.4-1.4-4.7l1.6-1.8L28.6,35.8L28.6,35.8z M26.4,47.2c-0.4,0.4-0.9,0.8-1.4,1c-0.5,0.2-1.1,0.4-1.8,0.4h0v0l-0.4,0   l-0.1,0c-0.5,0-1-0.2-1.5-0.4c-0.6-0.2-1-0.6-1.4-1c-0.8-0.9-1.2-2-1.2-3.3c0-1.4,0.5-2.6,1.3-3.5c0.8-0.8,2-1.2,3.2-1.2   s2.4,0.4,3.2,1.2c0.9,0.9,1.3,2.1,1.3,3.5C27.7,45.2,27.2,46.3,26.4,47.2L26.4,47.2z"></path>		<path class="st1" d="M73,36.7h-0.4v-0.1h0.8v0.1H73l0.1,1H73L73,36.7L73,36.7z"></path>		<path class="st1" d="M74.7,36.8l-0.4,0.6h0l-0.4-0.6v0.9h-0.1v-1h0.1l0.4,0.6l0.4-0.6h0.1v1h-0.1V36.8z"></path>	</g></g></svg>